<?xml version="1.0" encoding="UTF-8" standalone="no"?>
<!-- Created with Inkscape (http://www.inkscape.org/) -->

<svg
   version="1.1"
   id="svg132"
   width="2268"
   height="1701.3333"
   viewBox="0 0 2268 1701.3333"
   sodipodi:docname="CorteLaserListoParaImprimir.svg"
   inkscape:version="1.2.2 (732a01da63, 2022-12-09)"
   xmlns:inkscape="http://www.inkscape.org/namespaces/inkscape"
   xmlns:sodipodi="http://sodipodi.sourceforge.net/DTD/sodipodi-0.dtd"
   xmlns="http://www.w3.org/2000/svg"
   xmlns:svg="http://www.w3.org/2000/svg">
  <defs
     id="defs136">
    <clipPath
       clipPathUnits="userSpaceOnUse"
       id="clipPath148">
      <path
         d="M -850.32001,-637.73999 V 1913.4 H 2551.1399 V -637.73999 Z"
         id="path146" />
    </clipPath>
    <clipPath
       clipPathUnits="userSpaceOnUse"
       id="clipPath156">
      <path
         d="M -850.32001,-637.73999 V 1913.4 H 2551.1399 V -637.73999 Z"
         id="path154" />
    </clipPath>
  </defs>
  <sodipodi:namedview
     id="namedview134"
     pagecolor="#505050"
     bordercolor="#ffffff"
     borderopacity="1"
     inkscape:showpageshadow="0"
     inkscape:pageopacity="0"
     inkscape:pagecheckerboard="1"
     inkscape:deskcolor="#505050"
     showgrid="false"
     inkscape:zoom="0.45552511"
     inkscape:cx="1126.1728"
     inkscape:cy="857.25241"
     inkscape:window-width="1920"
     inkscape:window-height="991"
     inkscape:window-x="-9"
     inkscape:window-y="-9"
     inkscape:window-maximized="1"
     inkscape:current-layer="g140">
    <inkscape:page
       x="0"
       y="0"
       id="page138"
       width="2268"
       height="1701.3333" />
  </sodipodi:namedview>
  <g
     id="g140"
     inkscape:groupmode="layer"
     inkscape:label="Page 1"
     transform="matrix(1.3333333,0,0,-1.3333333,0,1701.3333)">
    <g
       id="g142">
      <g
         id="g144"
         clip-path="url(#clipPath148)" />
    </g>
    <g
       id="g150"
       style="stroke-width:0.14173229;stroke-dasharray:none;stroke:#ff0000;stroke-opacity:1">
      <g
         id="g152"
         clip-path="url(#clipPath156)"
         style="stroke-width:0.14173229;stroke-dasharray:none;stroke:#ff0000;stroke-opacity:1">
        <path
           d="m 42.66,822.51001 c 0,-2.33618 1.89384,-4.22998 4.23,-4.22998 2.33617,0 4.23,1.8938 4.23,4.22998 0,2.33618 -1.89383,4.22998 -4.23,4.22998 -2.33616,0 -4.23,-1.8938 -4.23,-4.22998"
           style="fill:none;stroke:#ff0000;stroke-width:0.14173229;stroke-linecap:round;stroke-linejoin:round;stroke-miterlimit:10;stroke-dasharray:none;stroke-opacity:1"
           id="path158" />
        <path
           d="m 42.66,1199.61 c 0,-2.3362 1.89384,-4.23 4.23,-4.23 2.33617,0 4.23,1.8938 4.23,4.23 0,2.3362 -1.89383,4.23 -4.23,4.23 -2.33616,0 -4.23,-1.8938 -4.23,-4.23"
           style="fill:none;stroke:#ff0000;stroke-width:0.14173229;stroke-linecap:round;stroke-linejoin:round;stroke-miterlimit:10;stroke-dasharray:none;stroke-opacity:1"
           id="path160" />
        <path
           d="m 340.20001,791.37 c 0,-2.33619 1.89383,-4.22999 4.22998,-4.22999 2.33618,0 4.23001,1.8938 4.23001,4.22999 0,2.33618 -1.89383,4.22998 -4.23001,4.22998 -2.33615,0 -4.22998,-1.8938 -4.22998,-4.22998"
           style="fill:none;stroke:#ff0000;stroke-width:0.14173229;stroke-linecap:round;stroke-linejoin:round;stroke-miterlimit:10;stroke-dasharray:none;stroke-opacity:1"
           id="path162" />
        <path
           d="m 552.96002,791.37 c 0,-2.33619 1.8938,-4.22999 4.22998,-4.22999 2.33618,0 4.22998,1.8938 4.22998,4.22999 0,2.33618 -1.8938,4.22998 -4.22998,4.22998 -2.33618,0 -4.22998,-1.8938 -4.22998,-4.22998"
           style="fill:none;stroke:#ff0000;stroke-width:0.14173229;stroke-linecap:round;stroke-linejoin:round;stroke-miterlimit:10;stroke-dasharray:none;stroke-opacity:1"
           id="path164" />
        <path
           d="m 340.20001,1230.75 c 0,-2.3362 1.89383,-4.23 4.22998,-4.23 2.33618,0 4.23001,1.8938 4.23001,4.23 0,2.3362 -1.89383,4.23 -4.23001,4.23 -2.33615,0 -4.22998,-1.8938 -4.22998,-4.23"
           style="fill:none;stroke:#ff0000;stroke-width:0.14173229;stroke-linecap:round;stroke-linejoin:round;stroke-miterlimit:10;stroke-dasharray:none;stroke-opacity:1"
           id="path166" />
        <path
           d="m 552.96002,1230.75 c 0,-2.3362 1.8938,-4.23 4.22998,-4.23 2.33618,0 4.22998,1.8938 4.22998,4.23 0,2.3362 -1.8938,4.23 -4.22998,4.23 -2.33618,0 -4.22998,-1.8938 -4.22998,-4.23"
           style="fill:none;stroke:#ff0000;stroke-width:0.14173229;stroke-linecap:round;stroke-linejoin:round;stroke-miterlimit:10;stroke-dasharray:none;stroke-opacity:1"
           id="path168" />
        <path
           d="m 137.52,946.71002 c 0,-2.33618 1.89383,-4.23004 4.23,-4.23004 2.33617,0 4.23,1.89386 4.23,4.23004 0,2.33612 -1.89383,4.22998 -4.23,4.22998 -2.33617,0 -4.23,-1.89386 -4.23,-4.22998"
           style="fill:none;stroke:#ff0000;stroke-width:0.14173229;stroke-linecap:round;stroke-linejoin:round;stroke-miterlimit:10;stroke-dasharray:none;stroke-opacity:1"
           id="path170" />
        <path
           d="m 137.52,1075.41 c 0,-2.3361 1.89383,-4.2299 4.23,-4.2299 2.33617,0 4.23,1.8938 4.23,4.2299 0,2.3362 -1.89383,4.23 -4.23,4.23 -2.33617,0 -4.23,-1.8938 -4.23,-4.23"
           style="fill:none;stroke:#ff0000;stroke-width:0.14173229;stroke-linecap:round;stroke-linejoin:round;stroke-miterlimit:10;stroke-dasharray:none;stroke-opacity:1"
           id="path172" />
        <path
           d="m 323.28,1081.98 h -42.48001 v 14.04 H 323.28 v -14.04"
           style="fill:none;stroke:#ff0000;stroke-width:0.14173229;stroke-linecap:round;stroke-linejoin:round;stroke-miterlimit:10;stroke-dasharray:none;stroke-opacity:1"
           id="path174" />
        <path
           d="m 323.28,926.09998 h -42.48001 v 14.04003 H 323.28 v -14.04003"
           style="fill:none;stroke:#ff0000;stroke-width:0.14173229;stroke-linecap:round;stroke-linejoin:round;stroke-miterlimit:10;stroke-dasharray:none;stroke-opacity:1"
           id="path176" />
        <path
           d="m 370.62,1062.45 c 0,-3.1314 2.53854,-5.67 5.67001,-5.67 3.13144,0 5.66998,2.5386 5.66998,5.67 0,3.1314 -2.53854,5.67 -5.66998,5.67 -3.13147,0 -5.67001,-2.5386 -5.67001,-5.67"
           style="fill:none;stroke:#ff0000;stroke-width:0.14173229;stroke-linecap:round;stroke-linejoin:round;stroke-miterlimit:10;stroke-dasharray:none;stroke-opacity:1"
           id="path178" />
        <path
           d="m 268.01999,1062.45 c 0,-3.1314 2.53854,-5.67 5.67001,-5.67 3.13144,0 5.66999,2.5386 5.66999,5.67 0,3.1314 -2.53855,5.67 -5.66999,5.67 -3.13147,0 -5.67001,-2.5386 -5.67001,-5.67"
           style="fill:none;stroke:#ff0000;stroke-width:0.14173229;stroke-linecap:round;stroke-linejoin:round;stroke-miterlimit:10;stroke-dasharray:none;stroke-opacity:1"
           id="path180" />
        <path
           d="m 370.62,959.66998 c 0,-3.13141 2.53854,-5.66998 5.67001,-5.66998 3.13144,0 5.66998,2.53857 5.66998,5.66998 0,3.13147 -2.53854,5.67005 -5.66998,5.67005 -3.13147,0 -5.67001,-2.53858 -5.67001,-5.67005"
           style="fill:none;stroke:#ff0000;stroke-width:0.14173229;stroke-linecap:round;stroke-linejoin:round;stroke-miterlimit:10;stroke-dasharray:none;stroke-opacity:1"
           id="path182" />
        <path
           d="m 268.01999,959.66998 c 0,-3.13141 2.53854,-5.66998 5.67001,-5.66998 3.13144,0 5.66999,2.53857 5.66999,5.66998 0,3.13147 -2.53855,5.67005 -5.66999,5.67005 -3.13147,0 -5.67001,-2.53858 -5.67001,-5.67005"
           style="fill:none;stroke:#ff0000;stroke-width:0.14173229;stroke-linecap:round;stroke-linejoin:round;stroke-miterlimit:10;stroke-dasharray:none;stroke-opacity:1"
           id="path184" />
        <path
           d="m 245.34,885.23999 h 43.01999 v -8.82001 H 245.34 v 8.82001"
           style="fill:none;stroke:#ff0000;stroke-width:0.14173229;stroke-linecap:round;stroke-linejoin:round;stroke-miterlimit:10;stroke-dasharray:none;stroke-opacity:1"
           id="path186" />
        <g
           id="g188"
           transform="rotate(90,-457.28998,787.67999)"
           style="stroke-width:0.14173229;stroke-dasharray:none;stroke:#ff0000;stroke-opacity:1">
          <path
             d="M 14.13,0 C 14.13,7.80378 7.80378,14.13 0,14.13"
             style="fill:none;stroke:#ff0000;stroke-width:0.14173229;stroke-linecap:round;stroke-linejoin:round;stroke-miterlimit:10;stroke-dasharray:none;stroke-opacity:1"
             id="path190" />
        </g>
        <g
           id="g192"
           transform="rotate(-90.00573,760.61905,458.7451)"
           style="stroke-width:0.14173229;stroke-dasharray:none;stroke:#ff0000;stroke-opacity:1">
          <path
             d="M 14.13,0 C 14.13,7.80378 7.80378,14.13 0,14.13"
             style="fill:none;stroke:#ff0000;stroke-width:0.14173229;stroke-linecap:round;stroke-linejoin:round;stroke-miterlimit:10;stroke-dasharray:none;stroke-opacity:1"
             id="path194" />
        </g>
        <g
           id="g196"
           transform="rotate(180,58.905,609.70501)"
           style="stroke-width:0.14173229;stroke-dasharray:none;stroke:#ff0000;stroke-opacity:1">
          <path
             d="M 14.13,0 C 14.13,7.80378 7.80378,14.13 0,14.13"
             style="fill:none;stroke:#ff0000;stroke-width:0.14173229;stroke-linecap:round;stroke-linejoin:round;stroke-miterlimit:10;stroke-dasharray:none;stroke-opacity:1"
             id="path198" />
        </g>
        <path
           d="m 103.5,1243.53 c 0,4.243 -1.9067,8.2614 -5.19328,10.945 -3.28658,2.6835 -7.60511,3.7481 -11.7624,2.8996"
           style="fill:none;stroke:#ff0000;stroke-width:0.14173229;stroke-linecap:round;stroke-linejoin:round;stroke-miterlimit:10;stroke-dasharray:none;stroke-opacity:1"
           id="path200" />
        <g
           id="g202"
           transform="matrix(-0.20007,-0.97978,0.97978,-0.20007,89.37,778.58997)"
           style="stroke-width:0.14173251;stroke-dasharray:none;stroke:#ff0000;stroke-opacity:1">
          <path
             d="m 14.13,0 c 0,4.243 -1.9067,8.2614 -5.19328,10.94495 -3.28658,2.68354 -7.60511,3.74813 -11.7624,2.89963"
             style="fill:none;stroke:#ff0000;stroke-width:0.14173251;stroke-linecap:round;stroke-linejoin:round;stroke-miterlimit:10;stroke-dasharray:none;stroke-opacity:1"
             id="path204" />
        </g>
        <g
           id="g206"
           transform="rotate(90,-342.45001,460.26001)"
           style="stroke-width:0.14173229;stroke-dasharray:none;stroke:#ff0000;stroke-opacity:1">
          <path
             d="M 14.13,0 C 14.13,7.80378 7.80378,14.13 0,14.13"
             style="fill:none;stroke:#ff0000;stroke-width:0.14173229;stroke-linecap:round;stroke-linejoin:round;stroke-miterlimit:10;stroke-dasharray:none;stroke-opacity:1"
             id="path208" />
        </g>
        <path
           d="m 316.07999,802.71002 c 0,7.80377 -6.32621,14.13001 -14.12998,14.13001"
           style="fill:none;stroke:#ff0000;stroke-width:0.14173229;stroke-linecap:round;stroke-linejoin:round;stroke-miterlimit:10;stroke-dasharray:none;stroke-opacity:1"
           id="path210" />
        <g
           id="g212"
           transform="rotate(180,165.195,388.57501)"
           style="stroke-width:0.14173229;stroke-dasharray:none;stroke:#ff0000;stroke-opacity:1">
          <path
             d="M 14.13,0 C 14.13,7.80378 7.80378,14.13 0,14.13"
             style="fill:none;stroke:#ff0000;stroke-width:0.14173229;stroke-linecap:round;stroke-linejoin:round;stroke-miterlimit:10;stroke-dasharray:none;stroke-opacity:1"
             id="path214" />
        </g>
        <path
           d="m 316.07999,1244.88 v -25.56"
           style="fill:none;stroke:#ff0000;stroke-width:0.14173229;stroke-linecap:round;stroke-linejoin:round;stroke-miterlimit:10;stroke-dasharray:none;stroke-opacity:1"
           id="path216" />
        <path
           d="M 302.04001,1205.28 H 117.72"
           style="fill:none;stroke:#ff0000;stroke-width:0.14173229;stroke-linecap:round;stroke-linejoin:round;stroke-miterlimit:10;stroke-dasharray:none;stroke-opacity:1"
           id="path218" />
        <path
           d="m 103.5,1219.32 v 24.1199"
           style="fill:none;stroke:#ff0000;stroke-width:0.14173229;stroke-linecap:round;stroke-linejoin:round;stroke-miterlimit:10;stroke-dasharray:none;stroke-opacity:1"
           id="path220" />
        <g
           id="g222"
           transform="rotate(101.53579,-427.51891,629.31634)"
           style="stroke-width:0.14173229;stroke-dasharray:none;stroke:#ff0000;stroke-opacity:1">
          <path
             d="m 85.05,0 c 0,40.41581 -28.44249,75.24978 -68.04191,83.33203"
             style="fill:none;stroke:#ff0000;stroke-width:0.14173229;stroke-linecap:round;stroke-linejoin:round;stroke-miterlimit:10;stroke-dasharray:none;stroke-opacity:1"
             id="path224" />
        </g>
        <g
           id="g226"
           transform="rotate(179.99427,51.773798,424.03759)"
           style="stroke-width:0.14173229;stroke-dasharray:none;stroke:#ff0000;stroke-opacity:1">
          <path
             d="m 85.05,0 c 0,40.41581 -28.44249,75.24978 -68.04191,83.33203"
             style="fill:none;stroke:#ff0000;stroke-width:0.14173229;stroke-linecap:round;stroke-linejoin:round;stroke-miterlimit:10;stroke-dasharray:none;stroke-opacity:1"
             id="path228" />
        </g>
        <path
           d="M 18.54,1174.14 V 847.97998"
           style="fill:none;stroke:#ff0000;stroke-width:0.14173229;stroke-linecap:round;stroke-linejoin:round;stroke-miterlimit:10;stroke-dasharray:none;stroke-opacity:1"
           id="path230" />
        <path
           d="M 330.29999,763.02002 H 585.53998 V 1259.1 H 330.29999"
           style="fill:none;stroke:#ff0000;stroke-width:0.14173229;stroke-linecap:round;stroke-linejoin:round;stroke-miterlimit:10;stroke-dasharray:none;stroke-opacity:1"
           id="path232" />
        <path
           d="m 103.5,778.67999 v 24.12"
           style="fill:none;stroke:#ff0000;stroke-width:0.14173229;stroke-linecap:round;stroke-linejoin:round;stroke-miterlimit:10;stroke-dasharray:none;stroke-opacity:1"
           id="path234" />
        <path
           d="M 117.72,816.84003 H 302.04001"
           style="fill:none;stroke:#ff0000;stroke-width:0.14173229;stroke-linecap:round;stroke-linejoin:round;stroke-miterlimit:10;stroke-dasharray:none;stroke-opacity:1"
           id="path236" />
        <path
           d="m 316.07999,802.79999 v -25.56"
           style="fill:none;stroke:#ff0000;stroke-width:0.14173229;stroke-linecap:round;stroke-linejoin:round;stroke-miterlimit:10;stroke-dasharray:none;stroke-opacity:1"
           id="path238" />
        <path
           d="M 288.35999,1136.88 H 245.34 v 8.82 h 43.01999 v -8.82"
           style="fill:none;stroke:#ff0000;stroke-width:0.14173229;stroke-linecap:round;stroke-linejoin:round;stroke-miterlimit:10;stroke-dasharray:none;stroke-opacity:1"
           id="path240" />
        <path
           d="m 111.6,354.69 c 0,-3.13147 2.53854,-5.67001 5.67,-5.67001 3.13145,0 5.67,2.53854 5.67,5.67001 0,3.13144 -2.53855,5.66999 -5.67,5.66999 -3.13146,0 -5.67,-2.53855 -5.67,-5.66999"
           style="fill:none;stroke:#ff0000;stroke-width:0.14173229;stroke-linecap:round;stroke-linejoin:round;stroke-miterlimit:10;stroke-dasharray:none;stroke-opacity:1"
           id="path242" />
        <path
           d="M 253.25999,384.29999 H 145.62 v 14.22 h 107.63999 v -14.22"
           style="fill:none;stroke:#ff0000;stroke-width:0.14173229;stroke-linecap:round;stroke-linejoin:round;stroke-miterlimit:10;stroke-dasharray:none;stroke-opacity:1"
           id="path244" />
        <path
           d="M 253.25999,591.29999 H 111.6 v 14.22003 h 141.65999 v -14.22003"
           style="fill:none;stroke:#ff0000;stroke-width:0.14173229;stroke-linecap:round;stroke-linejoin:round;stroke-miterlimit:10;stroke-dasharray:none;stroke-opacity:1"
           id="path246" />
        <path
           d="m 98.82,422.73001 c 0,-2.33618 1.89384,-4.23001 4.23,-4.23001 2.33616,0 4.23,1.89383 4.23,4.23001 0,2.33615 -1.89384,4.22998 -4.23,4.22998 -2.33616,0 -4.23,-1.89383 -4.23,-4.22998"
           style="fill:none;stroke:#ff0000;stroke-width:0.14173229;stroke-linecap:round;stroke-linejoin:round;stroke-miterlimit:10;stroke-dasharray:none;stroke-opacity:1"
           id="path248" />
        <path
           d="m 245.88,438.57001 c 0,-2.33618 1.89383,-4.23001 4.23,-4.23001 2.33617,0 4.23,1.89383 4.23,4.23001 0,2.33615 -1.89383,4.22998 -4.23,4.22998 -2.33617,0 -4.23,-1.89383 -4.23,-4.22998"
           style="fill:none;stroke:#ff0000;stroke-width:0.14173229;stroke-linecap:round;stroke-linejoin:round;stroke-miterlimit:10;stroke-dasharray:none;stroke-opacity:1"
           id="path250" />
        <path
           d="m 245.88,516.51001 c 0,-2.33618 1.89383,-4.22998 4.23,-4.22998 2.33617,0 4.23,1.8938 4.23,4.22998 0,2.33618 -1.89383,4.22998 -4.23,4.22998 -2.33617,0 -4.23,-1.8938 -4.23,-4.22998"
           style="fill:none;stroke:#ff0000;stroke-width:0.14173229;stroke-linecap:round;stroke-linejoin:round;stroke-miterlimit:10;stroke-dasharray:none;stroke-opacity:1"
           id="path252" />
        <path
           d="m 98.82,562.95001 c 0,-2.33618 1.89384,-4.23004 4.23,-4.23004 2.33616,0 4.23,1.89386 4.23,4.23004 0,2.33618 -1.89384,4.22998 -4.23,4.22998 -2.33616,0 -4.23,-1.8938 -4.23,-4.22998"
           style="fill:none;stroke:#ff0000;stroke-width:0.14173229;stroke-linecap:round;stroke-linejoin:round;stroke-miterlimit:10;stroke-dasharray:none;stroke-opacity:1"
           id="path254" />
        <path
           d="m 339.84,711.81 c 0,-2.33618 1.89383,-4.22998 4.23001,-4.22998 2.33615,0 4.22998,1.8938 4.22998,4.22998 0,2.33618 -1.89383,4.22998 -4.22998,4.22998 -2.33618,0 -4.23001,-1.8938 -4.23001,-4.22998"
           style="fill:none;stroke:#ff0000;stroke-width:0.14173229;stroke-linecap:round;stroke-linejoin:round;stroke-miterlimit:10;stroke-dasharray:none;stroke-opacity:1"
           id="path256" />
        <path
           d="m 339.84,272.42999 c 0,-2.33615 1.89383,-4.22998 4.23001,-4.22998 2.33615,0 4.22998,1.89383 4.22998,4.22998 0,2.33618 -1.89383,4.23001 -4.22998,4.23001 -2.33618,0 -4.23001,-1.89383 -4.23001,-4.23001"
           style="fill:none;stroke:#ff0000;stroke-width:0.14173229;stroke-linecap:round;stroke-linejoin:round;stroke-miterlimit:10;stroke-dasharray:none;stroke-opacity:1"
           id="path258" />
        <path
           d="m 552.41998,711.81 c 0,-2.33618 1.89386,-4.22998 4.23004,-4.22998 2.33613,0 4.22998,1.8938 4.22998,4.22998 0,2.33618 -1.89385,4.22998 -4.22998,4.22998 -2.33618,0 -4.23004,-1.8938 -4.23004,-4.22998"
           style="fill:none;stroke:#ff0000;stroke-width:0.14173229;stroke-linecap:round;stroke-linejoin:round;stroke-miterlimit:10;stroke-dasharray:none;stroke-opacity:1"
           id="path260" />
        <path
           d="m 552.41998,272.42999 c 0,-2.33615 1.89386,-4.22998 4.23004,-4.22998 2.33613,0 4.22998,1.89383 4.22998,4.22998 0,2.33618 -1.89385,4.23001 -4.22998,4.23001 -2.33618,0 -4.23004,-1.89383 -4.23004,-4.23001"
           style="fill:none;stroke:#ff0000;stroke-width:0.14173229;stroke-linecap:round;stroke-linejoin:round;stroke-miterlimit:10;stroke-dasharray:none;stroke-opacity:1"
           id="path262" />
        <path
           d="m 42.12,680.66998 c 0,-2.33612 1.89384,-4.22998 4.23,-4.22998 2.33616,0 4.23,1.89386 4.23,4.22998 0,2.33618 -1.89384,4.23004 -4.23,4.23004 -2.33616,0 -4.23,-1.89386 -4.23,-4.23004"
           style="fill:none;stroke:#ff0000;stroke-width:0.14173229;stroke-linecap:round;stroke-linejoin:round;stroke-miterlimit:10;stroke-dasharray:none;stroke-opacity:1"
           id="path264" />
        <path
           d="m 42.12,303.57001 c 0,-2.33618 1.89384,-4.23001 4.23,-4.23001 2.33616,0 4.23,1.89383 4.23,4.23001 0,2.33615 -1.89384,4.22998 -4.23,4.22998 -2.33616,0 -4.23,-1.89383 -4.23,-4.22998"
           style="fill:none;stroke:#ff0000;stroke-width:0.14173229;stroke-linecap:round;stroke-linejoin:round;stroke-miterlimit:10;stroke-dasharray:none;stroke-opacity:1"
           id="path266" />
        <path
           d="m 336.95999,492.03 c 0,-2.33615 1.89383,-4.23001 4.23001,-4.23001 2.33615,0 4.23001,1.89386 4.23001,4.23001 0,2.33615 -1.89386,4.23001 -4.23001,4.23001 -2.33618,0 -4.23001,-1.89386 -4.23001,-4.23001"
           style="fill:none;stroke:#ff0000;stroke-width:0.14173229;stroke-linecap:round;stroke-linejoin:round;stroke-miterlimit:10;stroke-dasharray:none;stroke-opacity:1"
           id="path268" />
        <path
           d="m 396.54001,492.03 c 0,-2.33615 1.89383,-4.23001 4.22998,-4.23001 2.33618,0 4.23001,1.89386 4.23001,4.23001 0,2.33615 -1.89383,4.23001 -4.23001,4.23001 -2.33615,0 -4.22998,-1.89386 -4.22998,-4.23001"
           style="fill:none;stroke:#ff0000;stroke-width:0.14173229;stroke-linecap:round;stroke-linejoin:round;stroke-miterlimit:10;stroke-dasharray:none;stroke-opacity:1"
           id="path270" />
        <path
           d="m 496.44,492.03 c 0,-1.93851 1.57147,-3.51001 3.51001,-3.51001 1.93851,0 3.50998,1.5715 3.50998,3.51001 0,1.93851 -1.57147,3.51001 -3.50998,3.51001 -1.93854,0 -3.51001,-1.5715 -3.51001,-3.51001"
           style="fill:none;stroke:#ff0000;stroke-width:0.14173229;stroke-linecap:round;stroke-linejoin:round;stroke-miterlimit:10;stroke-dasharray:none;stroke-opacity:1"
           id="path272" />
        <path
           d="m 523.97998,449.54999 c 0,-2.33615 1.89386,-4.22998 4.23004,-4.22998 2.33612,0 4.22998,1.89383 4.22998,4.22998 0,2.33618 -1.89386,4.23001 -4.22998,4.23001 -2.33618,0 -4.23004,-1.89383 -4.23004,-4.23001"
           style="fill:none;stroke:#ff0000;stroke-width:0.14173229;stroke-linecap:round;stroke-linejoin:round;stroke-miterlimit:10;stroke-dasharray:none;stroke-opacity:1"
           id="path274" />
        <path
           d="m 467.28,449.54999 c 0,-2.33615 1.89383,-4.22998 4.23001,-4.22998 2.33615,0 4.22998,1.89383 4.22998,4.22998 0,2.33618 -1.89383,4.23001 -4.22998,4.23001 -2.33618,0 -4.23001,-1.89383 -4.23001,-4.23001"
           style="fill:none;stroke:#ff0000;stroke-width:0.14173229;stroke-linecap:round;stroke-linejoin:round;stroke-miterlimit:10;stroke-dasharray:none;stroke-opacity:1"
           id="path276" />
        <path
           d="m 467.28,534.69 c 0,-2.33618 1.89383,-4.22998 4.23001,-4.22998 2.33615,0 4.22998,1.8938 4.22998,4.22998 0,2.33618 -1.89383,4.22998 -4.22998,4.22998 -2.33618,0 -4.23001,-1.8938 -4.23001,-4.22998"
           style="fill:none;stroke:#ff0000;stroke-width:0.14173229;stroke-linecap:round;stroke-linejoin:round;stroke-miterlimit:10;stroke-dasharray:none;stroke-opacity:1"
           id="path278" />
        <path
           d="m 523.97998,534.69 c 0,-2.33618 1.89386,-4.22998 4.23004,-4.22998 2.33612,0 4.22998,1.8938 4.22998,4.22998 0,2.33618 -1.89386,4.22998 -4.22998,4.22998 -2.33618,0 -4.23004,-1.8938 -4.23004,-4.22998"
           style="fill:none;stroke:#ff0000;stroke-width:0.14173229;stroke-linecap:round;stroke-linejoin:round;stroke-miterlimit:10;stroke-dasharray:none;stroke-opacity:1"
           id="path280" />
        <g
           id="g282"
           transform="rotate(90,-83.25001,200.52001)"
           style="stroke-width:0.14173229;stroke-dasharray:none;stroke:#ff0000;stroke-opacity:1">
          <path
             d="M 14.13,0 C 14.13,7.80378 7.80378,14.13 0,14.13"
             style="fill:none;stroke:#ff0000;stroke-width:0.14173229;stroke-linecap:round;stroke-linejoin:round;stroke-miterlimit:10;stroke-dasharray:none;stroke-opacity:1"
             id="path284" />
        </g>
        <g
           id="g286"
           transform="matrix(-0.20007,-0.97978,0.97978,-0.20007,88.83,259.64999)"
           style="stroke-width:0.14173251;stroke-dasharray:none;stroke:#ff0000;stroke-opacity:1">
          <path
             d="m 14.13,0 c 0,4.243 -1.9067,8.2614 -5.19328,10.94495 -3.28658,2.68354 -7.60511,3.74813 -11.7624,2.89963"
             style="fill:none;stroke:#ff0000;stroke-width:0.14173251;stroke-linecap:round;stroke-linejoin:round;stroke-miterlimit:10;stroke-dasharray:none;stroke-opacity:1"
             id="path288" />
        </g>
        <path
           d="m 315.72,283.76999 c 0,7.8038 -6.3262,14.13 -14.13,14.13"
           style="fill:none;stroke:#ff0000;stroke-width:0.14173229;stroke-linecap:round;stroke-linejoin:round;stroke-miterlimit:10;stroke-dasharray:none;stroke-opacity:1"
           id="path290" />
        <g
           id="g292"
           transform="rotate(180,164.925,129.10499)"
           style="stroke-width:0.14173229;stroke-dasharray:none;stroke:#ff0000;stroke-opacity:1">
          <path
             d="M 14.13,0 C 14.13,7.80378 7.80378,14.13 0,14.13"
             style="fill:none;stroke:#ff0000;stroke-width:0.14173229;stroke-linecap:round;stroke-linejoin:round;stroke-miterlimit:10;stroke-dasharray:none;stroke-opacity:1"
             id="path294" />
        </g>
        <g
           id="g296"
           transform="rotate(90,-198.09001,527.94002)"
           style="stroke-width:0.14173229;stroke-dasharray:none;stroke:#ff0000;stroke-opacity:1">
          <path
             d="M 14.13,0 C 14.13,7.80378 7.80378,14.13 0,14.13"
             style="fill:none;stroke:#ff0000;stroke-width:0.14173229;stroke-linecap:round;stroke-linejoin:round;stroke-miterlimit:10;stroke-dasharray:none;stroke-opacity:1"
             id="path298" />
        </g>
        <g
           id="g300"
           transform="rotate(-90.00573,500.99496,199.45506)"
           style="stroke-width:0.14173229;stroke-dasharray:none;stroke:#ff0000;stroke-opacity:1">
          <path
             d="M 14.13,0 C 14.13,7.80378 7.80378,14.13 0,14.13"
             style="fill:none;stroke:#ff0000;stroke-width:0.14173229;stroke-linecap:round;stroke-linejoin:round;stroke-miterlimit:10;stroke-dasharray:none;stroke-opacity:1"
             id="path302" />
        </g>
        <g
           id="g304"
           transform="rotate(179.99427,58.617488,350.23792)"
           style="stroke-width:0.14173229;stroke-dasharray:none;stroke:#ff0000;stroke-opacity:1">
          <path
             d="M 14.13,0 C 14.13,7.80378 7.80378,14.13 0,14.13"
             style="fill:none;stroke:#ff0000;stroke-width:0.14173229;stroke-linecap:round;stroke-linejoin:round;stroke-miterlimit:10;stroke-dasharray:none;stroke-opacity:1"
             id="path306" />
        </g>
        <path
           d="m 102.96,724.59003 c 0,4.24298 -1.90669,8.26135 -5.19328,10.94494 -3.28658,2.68354 -7.60511,3.74811 -11.7624,2.8996"
           style="fill:none;stroke:#ff0000;stroke-width:0.14173229;stroke-linecap:round;stroke-linejoin:round;stroke-miterlimit:10;stroke-dasharray:none;stroke-opacity:1"
           id="path308" />
        <path
           d="m 103.14,259.73999 v 23.94"
           style="fill:none;stroke:#ff0000;stroke-width:0.14173229;stroke-linecap:round;stroke-linejoin:round;stroke-miterlimit:10;stroke-dasharray:none;stroke-opacity:1"
           id="path310" />
        <path
           d="M 117.18,297.89999 H 301.5"
           style="fill:none;stroke:#ff0000;stroke-width:0.14173229;stroke-linecap:round;stroke-linejoin:round;stroke-miterlimit:10;stroke-dasharray:none;stroke-opacity:1"
           id="path312" />
        <path
           d="m 315.72,283.67999 v -25.38"
           style="fill:none;stroke:#ff0000;stroke-width:0.14173229;stroke-linecap:round;stroke-linejoin:round;stroke-miterlimit:10;stroke-dasharray:none;stroke-opacity:1"
           id="path314" />
        <g
           id="g316"
           transform="rotate(180,51.525,164.565)"
           style="stroke-width:0.14173229;stroke-dasharray:none;stroke:#ff0000;stroke-opacity:1">
          <path
             d="m 85.05,0 c 0,40.41581 -28.44249,75.24978 -68.04191,83.33203"
             style="fill:none;stroke:#ff0000;stroke-width:0.14173229;stroke-linecap:round;stroke-linejoin:round;stroke-miterlimit:10;stroke-dasharray:none;stroke-opacity:1"
             id="path318" />
        </g>
        <g
           id="g320"
           transform="rotate(101.53579,-215.92811,369.62585)"
           style="stroke-width:0.14173229;stroke-dasharray:none;stroke:#ff0000;stroke-opacity:1">
          <path
             d="m 85.05,0 c 0,40.41581 -28.44249,75.24978 -68.04191,83.33203"
             style="fill:none;stroke:#ff0000;stroke-width:0.14173229;stroke-linecap:round;stroke-linejoin:round;stroke-miterlimit:10;stroke-dasharray:none;stroke-opacity:1"
             id="path322" />
        </g>
        <path
           d="M 329.94,244.08 H 585 V 740.15997 H 329.94"
           style="fill:none;stroke:#ff0000;stroke-width:0.14173229;stroke-linecap:round;stroke-linejoin:round;stroke-miterlimit:10;stroke-dasharray:none;stroke-opacity:1"
           id="path324" />
        <path
           d="M 18,655.02002 V 329.04001"
           style="fill:none;stroke:#ff0000;stroke-width:0.14173229;stroke-linecap:round;stroke-linejoin:round;stroke-miterlimit:10;stroke-dasharray:none;stroke-opacity:1"
           id="path326" />
        <path
           d="M 315.72,725.94 V 700.38"
           style="fill:none;stroke:#ff0000;stroke-width:0.14173229;stroke-linecap:round;stroke-linejoin:round;stroke-miterlimit:10;stroke-dasharray:none;stroke-opacity:1"
           id="path328" />
        <path
           d="M 301.5,686.34003 H 117.18"
           style="fill:none;stroke:#ff0000;stroke-width:0.14173229;stroke-linecap:round;stroke-linejoin:round;stroke-miterlimit:10;stroke-dasharray:none;stroke-opacity:1"
           id="path330" />
        <path
           d="M 103.14,700.38 V 724.5"
           style="fill:none;stroke:#ff0000;stroke-width:0.14173229;stroke-linecap:round;stroke-linejoin:round;stroke-miterlimit:10;stroke-dasharray:none;stroke-opacity:1"
           id="path332" />
        <path
           d="m 164.34,194.67 c 0,-2.33617 1.89384,-4.23 4.23001,-4.23 2.33615,0 4.22999,1.89383 4.22999,4.23 0,2.33616 -1.89384,4.22999 -4.22999,4.22999 -2.33617,0 -4.23001,-1.89383 -4.23001,-4.22999"
           style="fill:none;stroke:#ff0000;stroke-width:0.14173229;stroke-linecap:round;stroke-linejoin:round;stroke-miterlimit:10;stroke-dasharray:none;stroke-opacity:1"
           id="path334" />
        <path
           d="m 164.34,244.35001 c 0,-2.33617 1.89384,-4.23001 4.23001,-4.23001 2.33615,0 4.22999,1.89384 4.22999,4.23001 0,2.33615 -1.89384,4.22999 -4.22999,4.22999 -2.33617,0 -4.23001,-1.89384 -4.23001,-4.22999"
           style="fill:none;stroke:#ff0000;stroke-width:0.14173229;stroke-linecap:round;stroke-linejoin:round;stroke-miterlimit:10;stroke-dasharray:none;stroke-opacity:1"
           id="path336" />
        <path
           d="m 111.96,259.92001 h 35.46"
           style="fill:none;stroke:#ff0000;stroke-width:0.14173229;stroke-linecap:round;stroke-linejoin:round;stroke-miterlimit:10;stroke-dasharray:none;stroke-opacity:1"
           id="path338" />
        <path
           d="M 189.89999,259.92001 H 225.36"
           style="fill:none;stroke:#ff0000;stroke-width:0.14173229;stroke-linecap:round;stroke-linejoin:round;stroke-miterlimit:10;stroke-dasharray:none;stroke-opacity:1"
           id="path340" />
        <path
           d="M 111.96,273.95999 V 259.92001"
           style="fill:none;stroke:#ff0000;stroke-width:0.14173229;stroke-linecap:round;stroke-linejoin:round;stroke-miterlimit:10;stroke-dasharray:none;stroke-opacity:1"
           id="path342" />
        <path
           d="m 225.36,259.92001 v 14.03998"
           style="fill:none;stroke:#ff0000;stroke-width:0.14173229;stroke-linecap:round;stroke-linejoin:round;stroke-miterlimit:10;stroke-dasharray:none;stroke-opacity:1"
           id="path344" />
        <path
           d="m 189.89999,180.53999 v 79.38002"
           style="fill:none;stroke:#ff0000;stroke-width:0.14173229;stroke-linecap:round;stroke-linejoin:round;stroke-miterlimit:10;stroke-dasharray:none;stroke-opacity:1"
           id="path346" />
        <path
           d="m 147.42,259.92001 v -79.38002 h 42.47999"
           style="fill:none;stroke:#ff0000;stroke-width:0.14173229;stroke-linecap:round;stroke-linejoin:round;stroke-miterlimit:10;stroke-dasharray:none;stroke-opacity:1"
           id="path348" />
        <path
           d="M 225.36,273.95999 H 111.96"
           style="fill:none;stroke:#ff0000;stroke-width:0.14173229;stroke-linecap:round;stroke-linejoin:round;stroke-miterlimit:10;stroke-dasharray:none;stroke-opacity:1"
           id="path350" />
        <g
           id="g352"
           transform="rotate(180,133.33499,128.74499)"
           style="stroke-width:0.14173229;stroke-dasharray:none;stroke:#ff0000;stroke-opacity:1">
          <path
             d="m -4.23,0 c 0,-2.33616 1.89384,-4.23 4.23,-4.23 2.33616,0 4.23,1.89384 4.23,4.23 C 4.23,2.33616 2.33616,4.23 0,4.23 -2.33616,4.23 -4.23,2.33616 -4.23,0"
             style="fill:none;stroke:#ff0000;stroke-width:0.14173229;stroke-linecap:round;stroke-linejoin:round;stroke-miterlimit:10;stroke-dasharray:none;stroke-opacity:1"
             id="path354" />
        </g>
        <g
           id="g356"
           transform="rotate(180,133.33499,103.905)"
           style="stroke-width:0.14173229;stroke-dasharray:none;stroke:#ff0000;stroke-opacity:1">
          <path
             d="m -4.23,0 c 0,-2.33616 1.89384,-4.23 4.23,-4.23 2.33616,0 4.23,1.89384 4.23,4.23 C 4.23,2.33616 2.33616,4.23 0,4.23 -2.33616,4.23 -4.23,2.33616 -4.23,0"
             style="fill:none;stroke:#ff0000;stroke-width:0.14173229;stroke-linecap:round;stroke-linejoin:round;stroke-miterlimit:10;stroke-dasharray:none;stroke-opacity:1"
             id="path358" />
        </g>
        <path
           d="M 323.45999,192.24001 H 288"
           style="fill:none;stroke:#ff0000;stroke-width:0.14173229;stroke-linecap:round;stroke-linejoin:round;stroke-miterlimit:10;stroke-dasharray:none;stroke-opacity:1"
           id="path360" />
        <path
           d="M 245.52,192.24001 H 210.06"
           style="fill:none;stroke:#ff0000;stroke-width:0.14173229;stroke-linecap:round;stroke-linejoin:round;stroke-miterlimit:10;stroke-dasharray:none;stroke-opacity:1"
           id="path362" />
        <path
           d="m 323.45999,178.02 v 14.22001"
           style="fill:none;stroke:#ff0000;stroke-width:0.14173229;stroke-linecap:round;stroke-linejoin:round;stroke-miterlimit:10;stroke-dasharray:none;stroke-opacity:1"
           id="path364" />
        <path
           d="M 210.06,192.24001 V 178.02"
           style="fill:none;stroke:#ff0000;stroke-width:0.14173229;stroke-linecap:round;stroke-linejoin:round;stroke-miterlimit:10;stroke-dasharray:none;stroke-opacity:1"
           id="path366" />
        <path
           d="M 245.52,271.62 V 192.24001"
           style="fill:none;stroke:#ff0000;stroke-width:0.14173229;stroke-linecap:round;stroke-linejoin:round;stroke-miterlimit:10;stroke-dasharray:none;stroke-opacity:1"
           id="path368" />
        <path
           d="M 288,192.24001 V 271.62 h -42.48"
           style="fill:none;stroke:#ff0000;stroke-width:0.14173229;stroke-linecap:round;stroke-linejoin:round;stroke-miterlimit:10;stroke-dasharray:none;stroke-opacity:1"
           id="path370" />
        <path
           d="M 210.06,178.02 H 323.45999"
           style="fill:none;stroke:#ff0000;stroke-width:0.14173229;stroke-linecap:round;stroke-linejoin:round;stroke-miterlimit:10;stroke-dasharray:none;stroke-opacity:1"
           id="path372" />
      </g>
    </g>
  </g>
</svg>
